<svg xmlns="http://www.w3.org/2000/svg" viewBox="0 0 780 320"><defs><style>.a{fill:#fff;}</style></defs><title>BORDERED_ARROW_RIGHT</title><polygon shape-rendering="crispEdges" class="a" points="577.57 80 642.57 145 80 145 80 175 642.57 175 577.57 240 620 240 700 160 620 80 577.57 80"/><path class="a" d="M735,0H45A45.05,45.05,0,0,0,0,45V275a45.05,45.05,0,0,0,45,45H735a45.05,45.05,0,0,0,45-45V45A45.05,45.05,0,0,0,735,0Zm15,275a15,15,0,0,1-15,15H45a15,15,0,0,1-15-15V45A15,15,0,0,1,45,30H735a15,15,0,0,1,15,15Z"/></svg>