<svg xmlns="http://www.w3.org/2000/svg" viewBox="0 0 780 320"><defs><style>.a{fill:#fff;}</style></defs><title>BORDERED_ARROW_LEFT</title><polygon shape-rendering="crispEdges" class="a" points="202.43 80 137.43 145 700 145 700 175 137.43 175 202.43 240 160 240 80 160 160 80 202.43 80"/><path class="a" d="M0,45V275a45.05,45.05,0,0,0,45,45H735a45.05,45.05,0,0,0,45-45V45A45.05,45.05,0,0,0,735,0H45A45.05,45.05,0,0,0,0,45Zm30,0A15,15,0,0,1,45,30H735a15,15,0,0,1,15,15V275a15,15,0,0,1-15,15H45a15,15,0,0,1-15-15Z"/></svg>